<mxfile host="app.diagrams.net" agent="Mozilla/5.0 (Macintosh; Intel Mac OS X 10_15_7) AppleWebKit/537.36 (KHTML, like Gecko) Chrome/120.0.0.0 Safari/537.36" version="25.0.3">
  <diagram name="Page-1" id="FMK6nm6GWHUHw9-_l5Ho">
    <mxGraphModel dx="2924" dy="1188" grid="1" gridSize="10" guides="1" tooltips="1" connect="1" arrows="1" fold="1" page="1" pageScale="1" pageWidth="850" pageHeight="1100" math="0" shadow="0">
      <root>
        <mxCell id="0" />
        <mxCell id="1" parent="0" />
        <mxCell id="GQWNdHw3BBGkEzscd1Xp-1" value="Player" style="swimlane;childLayout=stackLayout;horizontal=1;startSize=50;horizontalStack=0;rounded=1;fontSize=14;fontStyle=0;strokeWidth=2;resizeParent=0;resizeLast=1;shadow=0;dashed=0;align=center;arcSize=4;whiteSpace=wrap;html=1;" vertex="1" collapsed="1" parent="1">
          <mxGeometry x="90" y="205" width="80" height="50" as="geometry">
            <mxRectangle x="540" y="170" width="160" height="180" as="alternateBounds" />
          </mxGeometry>
        </mxCell>
        <mxCell id="GQWNdHw3BBGkEzscd1Xp-2" value="&lt;ul&gt;&lt;li&gt;id&lt;/li&gt;&lt;li&gt;first_name&lt;/li&gt;&lt;li&gt;last_name&lt;/li&gt;&lt;li&gt;email&lt;/li&gt;&lt;li&gt;passowd&lt;/li&gt;&lt;li&gt;login&lt;/li&gt;&lt;/ul&gt;" style="align=left;strokeColor=none;fillColor=none;spacingLeft=4;fontSize=12;verticalAlign=top;resizable=0;rotatable=0;part=1;html=1;" vertex="1" parent="GQWNdHw3BBGkEzscd1Xp-1">
          <mxGeometry y="50" width="160" height="130" as="geometry" />
        </mxCell>
        <mxCell id="GQWNdHw3BBGkEzscd1Xp-4" style="edgeStyle=orthogonalEdgeStyle;rounded=0;orthogonalLoop=1;jettySize=auto;html=1;exitX=0.5;exitY=1;exitDx=0;exitDy=0;" edge="1" parent="GQWNdHw3BBGkEzscd1Xp-1" source="GQWNdHw3BBGkEzscd1Xp-2" target="GQWNdHw3BBGkEzscd1Xp-2">
          <mxGeometry relative="1" as="geometry" />
        </mxCell>
        <mxCell id="GQWNdHw3BBGkEzscd1Xp-5" value="Game" style="swimlane;childLayout=stackLayout;horizontal=1;startSize=50;horizontalStack=0;rounded=1;fontSize=14;fontStyle=0;strokeWidth=2;resizeParent=0;resizeLast=1;shadow=0;dashed=0;align=center;arcSize=4;whiteSpace=wrap;html=1;" vertex="1" collapsed="1" parent="1">
          <mxGeometry x="-300" y="205" width="80" height="50" as="geometry">
            <mxRectangle x="-340" y="170" width="160" height="120" as="alternateBounds" />
          </mxGeometry>
        </mxCell>
        <mxCell id="GQWNdHw3BBGkEzscd1Xp-6" value="&lt;ul&gt;&lt;li&gt;id&lt;/li&gt;&lt;li&gt;type&lt;/li&gt;&lt;li&gt;start date&lt;/li&gt;&lt;/ul&gt;" style="align=left;strokeColor=none;fillColor=none;spacingLeft=4;fontSize=12;verticalAlign=top;resizable=0;rotatable=0;part=1;html=1;" vertex="1" parent="GQWNdHw3BBGkEzscd1Xp-5">
          <mxGeometry y="50" width="160" height="70" as="geometry" />
        </mxCell>
        <mxCell id="GQWNdHw3BBGkEzscd1Xp-7" style="rounded=0;orthogonalLoop=1;jettySize=auto;html=1;exitX=1;exitY=0.5;exitDx=0;exitDy=0;entryX=0;entryY=0.5;entryDx=0;entryDy=0;strokeWidth=2;startArrow=none;startFill=0;endArrow=none;endFill=0;edgeStyle=orthogonalEdgeStyle;" edge="1" parent="1" source="GQWNdHw3BBGkEzscd1Xp-9" target="GQWNdHw3BBGkEzscd1Xp-1">
          <mxGeometry relative="1" as="geometry" />
        </mxCell>
        <mxCell id="GQWNdHw3BBGkEzscd1Xp-11" value="" style="rounded=0;orthogonalLoop=1;jettySize=auto;html=1;exitX=1;exitY=0.5;exitDx=0;exitDy=0;entryX=0;entryY=0.5;entryDx=0;entryDy=0;strokeWidth=2;startArrow=none;startFill=0;endArrow=none;endFill=0;edgeStyle=orthogonalEdgeStyle;" edge="1" parent="1" source="GQWNdHw3BBGkEzscd1Xp-5" target="GQWNdHw3BBGkEzscd1Xp-9">
          <mxGeometry relative="1" as="geometry">
            <mxPoint x="160" y="400" as="sourcePoint" />
            <mxPoint x="330" y="227" as="targetPoint" />
          </mxGeometry>
        </mxCell>
        <mxCell id="GQWNdHw3BBGkEzscd1Xp-9" value="Player_Game" style="swimlane;childLayout=stackLayout;horizontal=1;startSize=50;horizontalStack=0;rounded=1;fontSize=14;fontStyle=0;strokeWidth=2;resizeParent=0;resizeLast=1;shadow=0;dashed=0;align=center;arcSize=4;whiteSpace=wrap;html=1;" vertex="1" collapsed="1" parent="1">
          <mxGeometry x="-130" y="205" width="130" height="50" as="geometry">
            <mxRectangle x="-80" y="170" width="180" height="120" as="alternateBounds" />
          </mxGeometry>
        </mxCell>
        <mxCell id="GQWNdHw3BBGkEzscd1Xp-10" value="&lt;ul&gt;&lt;li&gt;(id_player, id_game)&lt;/li&gt;&lt;li&gt;score&lt;/li&gt;&lt;/ul&gt;" style="align=left;strokeColor=none;fillColor=none;spacingLeft=4;fontSize=12;verticalAlign=top;resizable=0;rotatable=0;part=1;html=1;" vertex="1" parent="GQWNdHw3BBGkEzscd1Xp-9">
          <mxGeometry y="50" width="180" height="70" as="geometry" />
        </mxCell>
        <mxCell id="GQWNdHw3BBGkEzscd1Xp-14" value="Tournament" style="swimlane;childLayout=stackLayout;horizontal=1;startSize=50;horizontalStack=0;rounded=1;fontSize=14;fontStyle=0;strokeWidth=2;resizeParent=0;resizeLast=1;shadow=0;dashed=0;align=center;arcSize=4;whiteSpace=wrap;html=1;" vertex="1" collapsed="1" parent="1">
          <mxGeometry x="-315" y="490" width="110" height="50" as="geometry">
            <mxRectangle x="-340" y="600" width="160" height="120" as="alternateBounds" />
          </mxGeometry>
        </mxCell>
        <mxCell id="GQWNdHw3BBGkEzscd1Xp-15" value="&lt;ul&gt;&lt;li&gt;id&lt;/li&gt;&lt;li&gt;start_date&lt;/li&gt;&lt;/ul&gt;" style="align=left;strokeColor=none;fillColor=none;spacingLeft=4;fontSize=12;verticalAlign=top;resizable=0;rotatable=0;part=1;html=1;" vertex="1" parent="GQWNdHw3BBGkEzscd1Xp-14">
          <mxGeometry y="50" width="160" height="70" as="geometry" />
        </mxCell>
        <mxCell id="GQWNdHw3BBGkEzscd1Xp-16" value="Game_Tournament" style="swimlane;childLayout=stackLayout;horizontal=1;startSize=50;horizontalStack=0;rounded=1;fontSize=14;fontStyle=0;strokeWidth=2;resizeParent=0;resizeLast=1;shadow=0;dashed=0;align=center;arcSize=4;whiteSpace=wrap;html=1;" vertex="1" collapsed="1" parent="1">
          <mxGeometry x="-340" y="360" width="160" height="50" as="geometry">
            <mxRectangle x="-415" y="390" width="310" height="120" as="alternateBounds" />
          </mxGeometry>
        </mxCell>
        <mxCell id="GQWNdHw3BBGkEzscd1Xp-17" value="&lt;ul&gt;&lt;li&gt;(id_game, id_tournament)&lt;/li&gt;&lt;li&gt;phase (quarter, semi_final_final)&lt;/li&gt;&lt;/ul&gt;" style="align=left;strokeColor=none;fillColor=none;spacingLeft=4;fontSize=12;verticalAlign=top;resizable=0;rotatable=0;part=1;html=1;" vertex="1" parent="GQWNdHw3BBGkEzscd1Xp-16">
          <mxGeometry y="50" width="310" height="70" as="geometry" />
        </mxCell>
        <mxCell id="GQWNdHw3BBGkEzscd1Xp-18" style="edgeStyle=orthogonalEdgeStyle;rounded=0;orthogonalLoop=1;jettySize=auto;html=1;exitX=0.5;exitY=1;exitDx=0;exitDy=0;entryX=0.5;entryY=0;entryDx=0;entryDy=0;strokeWidth=2;endArrow=none;endFill=0;" edge="1" parent="1" source="GQWNdHw3BBGkEzscd1Xp-6" target="GQWNdHw3BBGkEzscd1Xp-16">
          <mxGeometry relative="1" as="geometry" />
        </mxCell>
        <mxCell id="GQWNdHw3BBGkEzscd1Xp-19" style="edgeStyle=orthogonalEdgeStyle;rounded=0;orthogonalLoop=1;jettySize=auto;html=1;entryX=0.5;entryY=0;entryDx=0;entryDy=0;strokeWidth=2;endArrow=none;endFill=0;" edge="1" parent="1" source="GQWNdHw3BBGkEzscd1Xp-17" target="GQWNdHw3BBGkEzscd1Xp-14">
          <mxGeometry relative="1" as="geometry" />
        </mxCell>
      </root>
    </mxGraphModel>
  </diagram>
</mxfile>
